ffmpeg started on 2025-06-30 at 14:41:50
Report written to "D:\Convert\FFMetrics\reports\psnr_report-6.txt"
Log level: 32
Command line:
ffmpeg -hide_banner -nostdin -i "G:\\\xc0\xed\xe8\xec\xe5\\\xce\xed\xe3\xee\xe8\xed\xe3\xe8\\!_37_\xc7\xe8\xec\xe0_2025\\JamClub\\\xc3\xee\xf1\xef\xee\xe4\xe8\xed \xe8 \xef\xb8\xf1\\JamClub_Tono_to_Inu_Woof_Woof!_S01E10_1080p_HEVC.mkv" -i "G:\\\xc0\xed\xe8\xec\xe5\\\xce\xed\xe3\xee\xe8\xed\xe3\xe8\\!_37_\xc7\xe8\xec\xe0_2025\\JamClub\\\xc3\xee\xf1\xef\xee\xe4\xe8\xed \xe8 \xef\xb8\xf1\\JamClub_Tono_to_Inu_Woof_Woof!_S01E10_1080p.mp4" -lavfi "[0:v]settb=AVTB,setpts=PTS-STARTPTS,format=pix_fmts=yuv420p10,fps=24000/1001,scale=1920:1080:flags=bicubic[main];[1:v]settb=AVTB,setpts=PTS-STARTPTS,format=pix_fmts=yuv420p,fps=24000/1001,scale=1920:1080:flags=bicubic[ref];[main][ref]psnr=eof_action=endall:stats_file='D\\:/Convert/FFMetrics/logs/psnr_logfile-6.txt'" -f null -
Input #0, matroska,webm, from 'G:\Аниме\Онгоинги\!_37_Зима_2025\JamClub\Господин и пёс\JamClub_Tono_to_Inu_Woof_Woof!_S01E10_1080p_HEVC.mkv':
  Metadata:
    COMPATIBLE_BRANDS: isomiso2avc1mp41
    MAJOR_BRAND     : isom
    MINOR_VERSION   : 512
    ENCODER         : Lavf61.7.100
  Duration: 00:02:58.20, start: -0.021000, bitrate: 1901 kb/s
  Stream #0:0: Video: hevc (Main 10), yuv420p10le(tv, bt709, progressive), 1920x1080 [SAR 1:1 DAR 16:9], 23.98 fps, 23.98 tbr, 1k tbn (default)
      Metadata:
        HANDLER_NAME    : VideoHandler
        VENDOR_ID       : [0][0][0][0]
        ENCODER         : Lavc61.19.100 libx265
        BPS             : 1715251
        DURATION        : 00:02:57.051708333
        NUMBER_OF_FRAMES: 4245
        NUMBER_OF_BYTES : 37960879
        _STATISTICS_WRITING_APP: mkvpropedit v66.0.0 ('Josie') 64-bit
        _STATISTICS_WRITING_DATE_UTC: 2025-06-28 15:57:41
        _STATISTICS_TAGS: BPS DURATION NUMBER_OF_FRAMES NUMBER_OF_BYTES
  Stream #0:1(eng): Audio: aac (LC), 48000 Hz, stereo, fltp (default)
      Metadata:
        HANDLER_NAME    : SoundHandler
        VENDOR_ID       : [0][0][0][0]
        ENCODER         : Lavc61.19.100 aac
        BPS             : 193517
        DURATION        : 00:02:58.179000000
        NUMBER_OF_FRAMES: 8353
        NUMBER_OF_BYTES : 4310102
        _STATISTICS_WRITING_APP: mkvpropedit v66.0.0 ('Josie') 64-bit
        _STATISTICS_WRITING_DATE_UTC: 2025-06-28 15:57:41
        _STATISTICS_TAGS: BPS DURATION NUMBER_OF_FRAMES NUMBER_OF_BYTES
Input #1, mov,mp4,m4a,3gp,3g2,mj2, from 'G:\Аниме\Онгоинги\!_37_Зима_2025\JamClub\Господин и пёс\JamClub_Tono_to_Inu_Woof_Woof!_S01E10_1080p.mp4':
  Metadata:
    major_brand     : isom
    minor_version   : 512
    compatible_brands: isomiso2avc1mp41
    encoder         : Lavf60.16.100
  Duration: 00:02:58.18, start: 0.000000, bitrate: 5228 kb/s
  Stream #1:0[0x1](und): Video: h264 (High) (avc1 / 0x31637661), yuv420p(tv, bt709, progressive), 1920x1080 [SAR 1:1 DAR 16:9], 5062 kb/s, 23.98 fps, 23.98 tbr, 90k tbn (default)
      Metadata:
        handler_name    : VideoHandler
        vendor_id       : [0][0][0][0]
  Stream #1:1[0x2](eng): Audio: aac (LC) (mp4a / 0x6134706D), 48000 Hz, stereo, fltp, 191 kb/s (default)
      Metadata:
        handler_name    : SoundHandler
        vendor_id       : [0][0][0][0]
Stream mapping:
  Stream #0:0 (hevc) -> settb:default
  Stream #1:0 (h264) -> settb:default
  psnr:default -> Stream #0:0 (wrapped_avframe)
  Stream #0:1 -> #0:1 (aac (native) -> pcm_s16le (native))
Output #0, null, to 'pipe:':
  Metadata:
    COMPATIBLE_BRANDS: isomiso2avc1mp41
    MAJOR_BRAND     : isom
    MINOR_VERSION   : 512
    encoder         : Lavf61.7.100
  Stream #0:0: Video: wrapped_avframe, yuv420p10le(tv, bt709, progressive), 1920x1080 [SAR 1:1 DAR 16:9], q=2-31, 200 kb/s, 23.98 fps, 23.98 tbn
      Metadata:
        encoder         : Lavc61.19.100 wrapped_avframe
  Stream #0:1(eng): Audio: pcm_s16le, 48000 Hz, stereo, s16, 1536 kb/s (default)
      Metadata:
        HANDLER_NAME    : SoundHandler
        VENDOR_ID       : [0][0][0][0]
        _STATISTICS_TAGS: BPS DURATION NUMBER_OF_FRAMES NUMBER_OF_BYTES
        BPS             : 193517
        DURATION        : 00:02:58.179000000
        NUMBER_OF_FRAMES: 8353
        NUMBER_OF_BYTES : 4310102
        _STATISTICS_WRITING_APP: mkvpropedit v66.0.0 ('Josie') 64-bit
        _STATISTICS_WRITING_DATE_UTC: 2025-06-28 15:57:41
        encoder         : Lavc61.19.100 pcm_s16le
frame=  121 fps=0.0 q=-0.0 size=N/A time=00:00:05.04 bitrate=N/A speed=9.72x    frame=  281 fps=273 q=-0.0 size=N/A time=00:00:11.72 bitrate=N/A speed=11.4x    frame=  485 fps=315 q=-0.0 size=N/A time=00:00:20.22 bitrate=N/A speed=13.1x    frame=  721 fps=349 q=-0.0 size=N/A time=00:00:30.07 bitrate=N/A speed=14.6x    frame=  951 fps=369 q=-0.0 size=N/A time=00:00:39.66 bitrate=N/A speed=15.4x    frame= 1213 fps=391 q=-0.0 size=N/A time=00:00:50.59 bitrate=N/A speed=16.3x    frame= 1413 fps=391 q=-0.0 size=N/A time=00:00:58.93 bitrate=N/A speed=16.3x    frame= 1619 fps=393 q=-0.0 size=N/A time=00:01:07.52 bitrate=N/A speed=16.4x    frame= 1821 fps=393 q=-0.0 size=N/A time=00:01:15.95 bitrate=N/A speed=16.4x    frame= 2068 fps=401 q=-0.0 size=N/A time=00:01:26.25 bitrate=N/A speed=16.7x    frame= 2317 fps=409 q=-0.0 size=N/A time=00:01:36.63 bitrate=N/A speed=17.1x    frame= 2570 fps=415 q=-0.0 size=N/A time=00:01:47.19 bitrate=N/A speed=17.3x    frame= 2798 fps=418 q=-0.0 size=N/A time=00:01:56.69 bitrate=N/A speed=17.4x    frame= 3001 fps=416 q=-0.0 size=N/A time=00:02:05.16 bitrate=N/A speed=17.4x    frame= 3183 fps=411 q=-0.0 size=N/A time=00:02:12.75 bitrate=N/A speed=17.2x    frame= 3413 fps=414 q=-0.0 size=N/A time=00:02:22.35 bitrate=N/A speed=17.3x    frame= 3599 fps=411 q=-0.0 size=N/A time=00:02:30.10 bitrate=N/A speed=17.1x    frame= 3809 fps=410 q=-0.0 size=N/A time=00:02:38.86 bitrate=N/A speed=17.1x    frame= 4007 fps=409 q=-0.0 size=N/A time=00:02:47.12 bitrate=N/A speed=17.1x    [Parsed_psnr_10 @ 000001c5bca50c00] PSNR y:46.608040 u:48.891935 v:49.527793 average:47.312518 min:37.690439 max:inf
[out#0/null @ 000001c5b994eec0] video:1824KiB audio:33412KiB subtitle:0KiB other streams:0KiB global headers:0KiB muxing overhead: unknown
frame= 4245 fps=413 q=-0.0 Lsize=N/A time=00:02:57.05 bitrate=N/A speed=17.2x    
